HIERARCHY
ROOT hip
{
  OFFSET 0 0 0
  CHANNELS 6 Xposition Yposition Zposition Zrotation Yrotation Xrotation
  JOINT abdomen
  {
    OFFSET 0 20.6881 -0.73152
    CHANNELS 3 Zrotation Xrotation Yrotation
    JOINT chest
    {
      OFFSET 0 11.7043 -0.48768
      CHANNELS 3 Zrotation Xrotation Yrotation
      JOINT neck
      {
        OFFSET 0 22.1894 -2.19456
        CHANNELS 3 Zrotation Xrotation Yrotation
        JOINT head
        {
          OFFSET -0.24384 7.07133 1.2192
          CHANNELS 3 Zrotation Xrotation Yrotation
          JOINT leftEye
          {
            OFFSET 4.14528 8.04674 8.04672
            CHANNELS 3 Zrotation Xrotation Yrotation
            End Site
            {
              OFFSET 1 0 0
            }
          }
          JOINT rightEye
          {
            OFFSET -3.6576 8.04674 8.04672
            CHANNELS 3 Zrotation Xrotation Yrotation
            End Site
            {
              OFFSET 1 0 0
            }
          }
        }
      }
      JOINT rCollar
      {
        OFFSET -2.68224 19.2634 -4.8768
        CHANNELS 3 Zrotation Xrotation Yrotation
        JOINT rShldr
        {
          OFFSET -8.77824 -1.95073 1.46304
          CHANNELS 3 Zrotation Xrotation Yrotation
          JOINT rForeArm
          {
            OFFSET -28.1742 -1.7115 0.48768
            CHANNELS 3 Zrotation Xrotation Yrotation
            JOINT rHand
            {
              OFFSET -22.5879 0.773209 7.07136
              CHANNELS 3 Zrotation Xrotation Yrotation
              JOINT rThumb1
              {
                OFFSET -1.2192 -0.487915 3.41376
                CHANNELS 3 Zrotation Xrotation Yrotation
                JOINT rThumb2
                {
                  OFFSET -3.37035 -0.52449 3.41376
                  CHANNELS 3 Zrotation Xrotation Yrotation
                  End Site
                  {
                    OFFSET -1.78271 -1.18214 1.43049
                  }
                }
              }
              JOINT rIndex1
              {
                OFFSET -7.75947 0.938293 5.60832
                CHANNELS 3 Zrotation Xrotation Yrotation
                JOINT rIndex2
                {
                  OFFSET -2.54057 -0.884171 1.56538
                  CHANNELS 3 Zrotation Xrotation Yrotation
                  End Site
                  {
                    OFFSET -1.62519 -0.234802 1.16502
                  }
                }
              }
              JOINT rMid1
              {
                OFFSET -8.24714 1.18213 3.41376
                CHANNELS 3 Zrotation Xrotation Yrotation
                JOINT rMid2
                {
                  OFFSET -3.10165 -0.590103 1.0647
                  CHANNELS 3 Zrotation Xrotation Yrotation
                  End Site
                  {
                    OFFSET -2.48547 -0.328903 0.83742
                  }
                }
              }
              JOINT rRing1
              {
                OFFSET -8.82822 0.546677 1.51678
                CHANNELS 3 Zrotation Xrotation Yrotation
                JOINT rRing2
                {
                  OFFSET -2.60934 -0.819778 -0.0198488
                  CHANNELS 3 Zrotation Xrotation Yrotation
                  End Site
                  {
                    OFFSET -2.33842 -0.294052 0.168128
                  }
                }
              }
              JOINT rPinky1
              {
                OFFSET -8.27202 -0.0477905 -0.4584
                CHANNELS 3 Zrotation Xrotation Yrotation
                JOINT rPinky2
                {
                  OFFSET -1.82734 -0.647385 -0.700984
                  CHANNELS 3 Zrotation Xrotation Yrotation
                  End Site
                  {
                    OFFSET -1.69225 -0.51767 -0.607171
                  }
                }
              }
            }
          }
        }
      }
      JOINT lCollar
      {
        OFFSET 2.68224 19.2634 -4.8768
        CHANNELS 3 Zrotation Xrotation Yrotation
        JOINT lShldr
        {
          OFFSET 8.77824 -1.95073 1.46304
          CHANNELS 3 Zrotation Xrotation Yrotation
          JOINT lForeArm
          {
            OFFSET 28.1742 -1.7115 0.48768
            CHANNELS 3 Zrotation Xrotation Yrotation
            JOINT lHand
            {
              OFFSET 22.5879 0.773209 7.07136
              CHANNELS 3 Zrotation Xrotation Yrotation
              JOINT lThumb1
              {
                OFFSET 1.2192 -0.487915 3.41376
                CHANNELS 3 Zrotation Xrotation Yrotation
                JOINT lThumb2
                {
                  OFFSET 3.37035 -0.52449 3.41376
                  CHANNELS 3 Zrotation Xrotation Yrotation
                  End Site
                  {
                    OFFSET 1.78271 -1.18214 1.43049
                  }
                }
              }
              JOINT lIndex1
              {
                OFFSET 7.75947 0.938293 5.60832
                CHANNELS 3 Zrotation Xrotation Yrotation
                JOINT lIndex2
                {
                  OFFSET 2.54057 -0.884171 1.56538
                  CHANNELS 3 Zrotation Xrotation Yrotation
                  End Site
                  {
                    OFFSET 1.62519 -0.234802 1.16502
                  }
                }
              }
              JOINT lMid1
              {
                OFFSET 8.24714 1.18213 3.41376
                CHANNELS 3 Zrotation Xrotation Yrotation
                JOINT lMid2
                {
                  OFFSET 3.10165 -0.590103 1.0647
                  CHANNELS 3 Zrotation Xrotation Yrotation
                  End Site
                  {
                    OFFSET 2.48547 -0.328903 0.83742
                  }
                }
              }
              JOINT lRing1
              {
                OFFSET 8.82822 0.546677 1.51678
                CHANNELS 3 Zrotation Xrotation Yrotation
                JOINT lRing2
                {
                  OFFSET 2.60934 -0.819778 -0.0198488
                  CHANNELS 3 Zrotation Xrotation Yrotation
                  End Site
                  {
                    OFFSET 2.33842 -0.294052 0.168128
                  }
                }
              }
              JOINT lPinky1
              {
                OFFSET 8.27202 -0.0477905 -0.4584
                CHANNELS 3 Zrotation Xrotation Yrotation
                JOINT lPinky2
                {
                  OFFSET 1.82734 -0.647385 -0.700984
                  CHANNELS 3 Zrotation Xrotation Yrotation
                  End Site
                  {
                    OFFSET 1.69225 -0.51767 -0.607171
                  }
                }
              }
            }
          }
        }
      }
    }
  }
  JOINT rButtock
  {
    OFFSET -8.77824 4.35084 1.2192
    CHANNELS 3 Zrotation Xrotation Yrotation
    JOINT rThigh
    {
      OFFSET 0 -1.70687 -2.19456
      CHANNELS 3 Zrotation Xrotation Yrotation
      JOINT rShin
      {
        OFFSET 0 -36.8199 0.73152
        CHANNELS 3 Zrotation Xrotation Yrotation
        JOINT rFoot
        {
          OFFSET 0.73152 -45.1104 -5.12064
          CHANNELS 3 Zrotation Xrotation Yrotation
          End Site
          {
            OFFSET -1.1221 -3.69964 12.103
          }
        }
      }
    }
  }
  JOINT lButtock
  {
    OFFSET 8.77824 4.35084 1.2192
    CHANNELS 3 Zrotation Xrotation Yrotation
    JOINT lThigh
    {
      OFFSET 0 -1.70687 -2.19456
      CHANNELS 3 Zrotation Xrotation Yrotation
      JOINT lShin
      {
        OFFSET 0 -36.8199 0.73152
        CHANNELS 3 Zrotation Xrotation Yrotation
        JOINT lFoot
        {
          OFFSET -0.73152 -45.1104 -5.12064
          CHANNELS 3 Zrotation Xrotation Yrotation
          End Site
          {
            OFFSET 1.1221 -3.69964 12.103
          }
        }
      }
    }
  }
}
MOTION
Frames:	6
Frame Time:	0.03333
-0.3206 63.822500000000005 10.175099999999999 -4.864635 -16.594088 12.858787 3.593086 -1.676457 -62.033535 6.877489 -5.482903 66.273279 -2.469566 5.092922 -50.99525 -2.076517 4.447301 49.42519 7.251745 3.288813 48.744766 22.265088 -5.267404 -26.314068 -152.32012 -3.987189 159.624604 -26.465801 12.119456 7.097295 11.974029 6.838047 -133.907735 -120.211525 43.513984 100.251102 33.347274 1.974784 6.054921 -115.184939 5.611974 73.484811 4.392207 -8.873008 1.261985 3.746019 -3.244332 34.751623 -162.469929 -14.519052 106.460579 -50.850802 46.486737 73.643616 -130.978892 33.993767 145.422441 -133.256433 29.571819 135.656037 2.217927 20.27199 26.619623 -62.73707 -44.141293 -90.721634 15.663155 34.879113 -8.784853 -51.233344 -5.12543 -34.888761 -162.153882 -17.507212 -65.931936 139.960805 41.228924 -122.555732 -55.192642 -48.034961 -4.003332 -24.644892 -61.861105 12.380184 37.180716 44.426787 -34.873687 149.815725 6.015169 -83.429242 79.333693 56.999036 -76.792824 24.164693 -4.644835 24.52472 -2.435796 -14.639901 1.14619 -14.944836 -25.29851 -7.967052 42.821988 -1.841075 -10.910052 120.901063 56.805945 143.278817 -86.130466 81.229592 -89.452051 155.645701 54.944153 -151.058639 -40.000225 -50.555514 20.053733 173.746197 -10.612198 -83.406753 81.019908 67.640668 58.030789 -123.828376 -0.61375 90.666296 52.208326 -16.517678 -132.811422 -107.23566 -60.314793 -14.964404
-0.0846 63.918200000000006 10.2688 -4.834436 -16.793253 12.931522 -0.376242 -1.680221 73.733832 -6.977777 -5.923495 -72.401668 13.470292 9.880126 103.616964 2.953071 13.655289 -108.185402 5.316003 2.143724 43.900479 24.094253 -6.147028 -28.244425 -146.002625 20.709924 151.715081 119.262133 -64.670242 132.391672 -79.673971 -29.559224 55.42085 -165.422115 -50.667327 161.330676 -75.725718 27.907276 63.599202 -169.225896 -35.559065 99.858364 -16.143964 17.329426 13.49312 -80.571537 25.133153 43.342826 42.182003 -23.73051 38.813302 -79.366451 64.795201 33.347127 -80.931853 54.306658 93.657655 -117.797503 18.121982 147.958792 -3.678727 -46.829593 1.81176 -139.935564 1.096592 -102.82576 13.553157 35.455032 -6.748889 -47.971766 -3.098312 -34.554167 -155.625493 -12.788054 -62.603587 132.352614 46.493641 -114.80738 24.472415 34.768678 -7.422344 -24.307042 -42.139767 -9.080731 -2.024526 10.036876 0.419821 58.49752 35.37318 -63.85844 -78.897082 -75.219882 -44.799332 -34.386568 -3.297432 -22.757969 70.776563 70.400027 -86.288327 88.584274 -84.44824 91.911205 93.822045 83.30469 -92.692948 -27.976797 -75.862776 -25.907146 84.005714 86.252933 92.237271 179.373711 58.946647 -3.57335 32.961694 50.234581 79.145455 -94.977203 -28.253731 -163.925693 -124.733435 69.66792 -56.97209 -172.908348 17.494229 157.517574 37.17579 -54.657453 -31.975521 -145.360583 -68.101915 119.974119
-0.0142 64.1871 10.3966 -4.732177 -16.159036 11.92306 1.216615 -0.475868 88.674528 -8.083374 -5.304404 -89.611575 -4.042112 -0.700918 -3.947107 2.637297 7.938748 -1.279754 0.841496 0.299278 39.155314 25.162293 -7.178722 -31.397573 -80.968788 63.141299 85.955538 -84.530872 47.249696 93.707481 11.850337 16.452236 -136.640054 -118.984691 43.021354 97.651572 -7.080925 24.932274 20.747901 -51.273748 15.770099 34.682358 -109.149271 29.293226 87.711425 -6.210276 -16.59996 -9.099224 15.981213 -3.297016 34.314834 -121.472851 -79.572603 -118.379467 -131.690573 29.843172 142.699633 -7.477628 21.034481 45.876311 -126.075292 -36.155774 -138.334769 -138.536271 -42.2649 -113.645567 8.288132 25.827424 -0.819686 -66.51274 -27.162744 -30.994497 90.021158 -16.990245 -130.619026 175.802676 -39.706969 -155.882076 0.702133 7.765519 6.37852 -170.792908 -56.324602 -87.097111 -2.793325 1.942162 4.100239 -27.647075 15.269463 -12.216305 33.952131 50.091706 -35.513614 76.325191 69.592907 -31.732718 156.057074 12.709909 -174.199763 7.184577 7.012354 17.566446 -169.590019 26.32028 152.681208 41.966696 56.063526 -46.080525 -113.813941 85.187712 -62.009977 157.685341 56.648234 18.68057 38.352899 46.132304 75.863555 -113.742801 -24.908996 -177.143377 -21.714896 -6.988323 -0.0 51.432617 -47.234953 -40.973162 -63.745256 6.683832 -91.668443 -97.839435 4.186176 -177.855731
-0.0098 64.3784 10.472199999999999 -4.468617 -16.657046 11.847042 4.711647 2.486777 -0.008318 4.00504 -11.172628 -0.469931 -13.906572 11.374806 -96.170351 3.170992 13.108101 90.435508 -2.435841 -0.760161 34.659075 29.074394 -6.704933 -25.459011 1.87126 -3.421135 5.09642 -135.838525 -3.21993 171.722117 7.46989 26.964692 -135.418091 -124.61058 40.722829 103.164368 -170.661335 -29.988807 78.661047 -133.324275 3.779671 80.596439 149.378399 -66.97008 95.384907 -97.497 -88.546848 -161.6901 -80.43339 30.770386 83.50519 26.438754 24.094513 -30.263065 16.02199 -72.046736 15.352404 -61.619018 -33.603587 -63.819191 -1.206279 -46.138633 -6.460062 -11.446064 3.342746 -16.5167 156.874539 24.746188 -160.593427 32.324814 -6.722278 -19.619288 -81.328483 -5.36752 172.311797 41.567465 41.47204 -24.727284 82.023269 42.497495 -42.940649 -18.808628 -41.424965 -18.245562 23.832218 25.490534 -16.983895 176.875675 -27.89348 -82.197653 118.620226 45.168991 -111.236316 24.207198 -41.444548 39.448687 98.945493 68.165485 -100.105321 22.065457 24.522344 -21.467351 35.119416 60.778888 -23.376094 21.696825 63.476411 -78.562228 1.445722 -10.425234 -0.0 -7.345862 -19.206106 -21.399358 -8.019142 51.434441 -57.180293 107.694041 22.196879 -2.164332 160.954852 84.96391 -0.0 -149.938905 18.365154 -9.719477 -9.448528 55.627227 -90.391611 56.693931 -39.608912 138.584447
-0.136 64.7663 10.5593 -4.202316 -16.779915 11.83774 3.104224 0.282855 91.082552 -8.953428 -7.402619 -93.635745 3.625156 8.31973 107.649548 -0.91281 5.636867 -116.151367 -5.330027 -1.224047 25.850476 30.863076 -4.900761 -17.62446 -179.205741 -76.529542 155.362408 34.318256 64.085582 -33.659921 78.972631 63.138277 30.126081 -20.762574 -30.810014 -15.03365 -161.569283 -22.204698 82.835209 107.077932 -67.007275 69.290965 -16.529156 12.853653 8.633639 5.032654 19.876685 27.311297 23.960249 -12.065193 23.993209 -73.667196 63.352362 31.810339 6.288002 -62.656071 12.559136 -155.721314 -12.334115 -131.685022 -119.908855 54.703556 -177.7939 -57.045658 80.985239 117.952736 159.346221 -20.234799 -171.626538 28.28064 2.676673 10.412916 148.855602 -15.410848 83.955899 -2.088795 -65.523049 5.599574 5.099713 -4.652013 1.75452 118.585699 -17.884977 -98.158561 159.126731 -19.215568 -115.201137 -154.562247 -75.275836 -119.155458 142.132855 26.951604 -128.220689 140.754707 -57.439792 165.141959 32.847728 39.539215 -24.175175 144.689846 6.860874 -140.035733 57.150663 -34.369996 13.659171 -147.084782 65.392417 83.390015 -60.030312 29.841057 -54.459657 78.775658 7.581931 -180.0 25.011893 -55.915042 -13.261315 -147.365416 -7.311926 172.294888 2.353079 -7.172086 18.218028 3.627798 -50.006443 2.827181 -14.383641 49.506149 -36.909831 11.495698 -21.799748 70.167665
-0.43470000000000003 64.9423 10.6664 -3.914196 -16.687649 11.949503 3.259254 0.073142 90.300262 -8.331777 -8.989284 -93.429257 2.301805 3.46162 88.481781 1.223897 3.890727 -96.353368 -7.287634 -1.009508 15.752642 31.719153 -3.000804 -10.535312 -124.735624 50.291434 125.830188 -176.995448 -0.122892 147.083729 176.451048 -85.897835 39.020498 -128.226288 37.964365 107.94482 -138.641137 -0.640916 84.204334 -10.405006 -33.786962 13.696076 -171.800723 -35.931253 120.624811 -11.212668 -52.386164 -42.697594 -149.840006 -9.864267 121.469584 12.415168 39.518914 19.437265 -163.287381 -7.412956 161.425301 81.657998 -67.598113 101.842544 16.453368 -6.4298 13.541755 -44.123364 -21.923698 -46.054888 155.725752 19.90373 -162.654129 -175.702441 44.742224 -151.282248 62.739088 -23.868949 -178.160341 174.948975 -24.694627 -149.589325 85.164843 38.70796 -36.697825 -168.257692 -27.920407 -68.834268 170.755919 -29.89686 -112.236205 -20.00322 -67.489041 14.756163 161.960279 -7.077988 -140.80658 148.521513 0.336835 -169.42417 91.291708 64.499398 -84.920073 -86.125309 -68.880253 -89.586237 113.732222 -55.337911 76.618604 -15.227679 28.465247 15.769123 83.590099 40.022808 55.071133 -112.064593 29.260326 -48.767336 -9.195263 50.313679 -50.405924 -61.63234 -49.25507 19.592435 -29.349638 -8.433121 -13.100211 54.834848 -36.788576 67.124789 33.528235 39.677534 -30.963384 -89.024152 -24.941052 -3.553027
